<?xml version="1.0" encoding="utf-8"?>
<!-- Generator: Adobe Illustrator 27.4.1, SVG Export Plug-In . SVG Version: 6.00 Build 0)  -->
<svg version="1.1" id="Layer_1" xmlns="http://www.w3.org/2000/svg" xmlns:xlink="http://www.w3.org/1999/xlink" x="0px" y="0px"
	 viewBox="0 0 2649 2225.6" style="enable-background:new 0 0 2649 2225.6;" xml:space="preserve">
<style type="text/css">
	.st0{fill:#FFFFFF;}
	.st1{fill:#F0141E;}
</style>
<rect class="st0" width="2649" height="2225.6"/>
<g>
	<g>
		<path class="st1" d="M74.5,76h2500v1000H74.5V76z"/>
		<path class="st0" d="M2190.1,309.1V155.9h-428.5L1691,667.3l-69.7-511.4h-154.5l17.3,136.6c-17.8-35-81.1-136.6-220.3-136.6
			c-0.9-0.1-154.7,0-154.7,0l-0.6,745.4L995.7,155.9l-202.4-0.1L676.8,928.2l0.1-772.3H483.1l-69.8,433.8l-68-433.8H151.5v839.7
			h152.6V590.9l69.4,404.7h81.1l68.5-404.7v404.7h294.2l17.8-129.2h118.4l17.8,129.2l288.9,0.2h0.2v-0.2h0.4V723.1l35.4-5.1
			l73.3,277.8h149.4l-0.1-0.2h0.4L1423,670c48.7-35.9,103.8-126.9,89.1-214v0c0.2,1.1,90.8,540.1,90.8,540.1l177.7-0.5l121.4-761
			v761h288.1v-151h-136.7V652.1h136.7V498.8h-136.7V309.1L2190.1,309.1L2190.1,309.1z M853,733.3l41.9-359l43.5,359H853z
			 M1296.6,567.5c-11.7,5.6-23.9,8.4-35.9,8.5v-270c0.2,0,0.5,0,0.8,0c11.9-0.1,101,3.6,101,133.5
			C1362.5,507.4,1332.2,550.3,1296.6,567.5L1296.6,567.5z M2497.5,844.4v150.9h-281.1V155.8h151.4v688.7H2497.5z"/>
	</g>
	<g>
		<rect x="74.5" y="1149.7" width="2500" height="1000"/>
		<g>
			<path class="st0" d="M151.5,1883.3v-467.2h80.3v397.3h126.2v69.9H151.5z"/>
			<path class="st0" d="M445.9,1529.3c0-34.9,10.5-63.6,31.4-86.1c20.9-22.4,51.5-33.6,91.6-33.6c40.1,0,70.6,11.2,91.6,33.6
				c20.9,22.4,31.4,51.1,31.4,86.1V1770c0,34.9-10.5,63.6-31.4,86.1c-20.9,22.4-51.5,33.6-91.6,33.6c-40.1,0-70.7-11.2-91.6-33.6
				c-20.9-22.4-31.4-51.1-31.4-86.1V1529.3z M526.2,1768.1c0,18.1,3.2,31.3,9.7,39.5c6.5,8.2,17.5,12.3,33,12.3
				c16,0,27.1-4.1,33.3-12.3c6.3-8.2,9.4-21.4,9.4-39.5v-236.8c0-18.1-3.1-31.3-9.4-39.5c-6.3-8.2-17.4-12.3-33.3-12.3
				c-15.5,0-26.5,4.1-33,12.3c-6.5,8.2-9.7,21.4-9.7,39.5V1768.1z"/>
			<path class="st0" d="M808.4,1883.3v-467.2h74.4l97.7,267.2h1.3v-267.2h72.5v467.2h-69.9l-102.3-291.8h-1.3v291.8H808.4z"/>
			<path class="st0" d="M1281.4,1646.5h131.4v236.8H1374l-14.9-34.9c-12.5,15.1-24.6,25.8-36.2,32c-11.6,6.2-26.5,9.4-44.7,9.4
				c-32.4,0-58.4-10.8-78-32.4c-19.6-21.6-29.4-50.7-29.4-87.4v-240.7c0-34.9,10.1-63.6,30.4-86.1c20.3-22.4,49.4-33.6,87.4-33.6
				c38.4,0,68.1,12.1,89,36.2c20.9,24.2,31.4,54.8,31.4,91.9v29.8h-76.4c0-33.6-3.6-56.7-10.7-69.2c-7.1-12.5-18.9-18.8-35.3-18.8
				c-10.8,0-19.4,3.9-25.9,11.6s-9.7,20.9-9.7,39.5v240.1c0,15.5,2.9,27.6,8.7,36.2c5.8,8.6,15.4,12.9,28.8,12.9
				c16,0,27.3-5,34-14.9c6.7-9.9,10-26.5,10-49.8v-45.3h-51.1V1646.5z"/>
			<path class="st0" d="M1533.2,1416.1h119.1c42.3,0,73.6,10.5,93.8,31.4c20.3,20.9,30.4,51.7,30.4,92.2c0,21.6-4.6,41.4-13.9,59.5
				c-9.3,18.1-23.2,30.8-41.7,38.2c21.1,9.5,37.2,23.1,48.2,40.8c11,17.7,16.5,41,16.5,69.9c0,41.4-10.1,74.3-30.4,98.7
				c-20.3,24.4-52,36.6-95.1,36.6h-126.8V1416.1z M1613.4,1607.6h29.1c16,0,28.9-5.2,38.8-15.5c9.9-10.4,14.9-25,14.9-44
				c0-44-17.5-66-52.4-66h-30.4V1607.6z M1613.4,1817.3h33.7c20.7,0,35.6-5.9,44.7-17.8c9.1-11.9,13.6-29.9,13.6-54
				c0-24.6-5.1-42.7-15.2-54.4c-10.1-11.6-27.1-17.5-50.8-17.5h-25.9V1817.3z"/>
			<path class="st0" d="M1895.6,1529.3c0-34.9,10.5-63.6,31.4-86.1c20.9-22.4,51.5-33.6,91.6-33.6c40.1,0,70.6,11.2,91.6,33.6
				c20.9,22.4,31.4,51.1,31.4,86.1V1770c0,34.9-10.5,63.6-31.4,86.1c-20.9,22.4-51.5,33.6-91.6,33.6c-40.1,0-70.7-11.2-91.6-33.6
				c-20.9-22.4-31.4-51.1-31.4-86.1V1529.3z M1975.9,1768.1c0,18.1,3.2,31.3,9.7,39.5c6.5,8.2,17.5,12.3,33,12.3
				c16,0,27.1-4.1,33.3-12.3c6.3-8.2,9.4-21.4,9.4-39.5v-236.8c0-18.1-3.1-31.3-9.4-39.5c-6.3-8.2-17.4-12.3-33.3-12.3
				c-15.5,0-26.5,4.1-33,12.3c-6.5,8.2-9.7,21.4-9.7,39.5V1768.1z"/>
			<path class="st0" d="M2320.2,1638.7l-85.4-222.6h79l49.2,148.2h1.3l44.7-148.2h79l-80.9,222.6l90.6,244.6h-79l-54.4-170.2h-1.3
				l-55.7,170.2h-79L2320.2,1638.7z"/>
		</g>
	</g>
</g>
</svg>
